<svg id="Layer_1" viewBox="0 0 24 24" xmlns="http://www.w3.org/2000/svg" data-name="Layer 1"><path d="m21 8h-16c-.859 0-1.672-.373-2.235-1 .078-.088.162-.171.251-.25.414-.366.454-.998.088-1.412-.366-.415-.998-.454-1.412-.088-.425.375-.778.813-1.05 1.298-.417.741-.643 1.584-.643 2.452v10c0 2.757 2.243 5 5 5h16c1.654 0 3-1.346 3-3v-10c0-1.654-1.346-3-3-3zm-2.5 9.5c-.828 0-1.5-.672-1.5-1.5s.672-1.5 1.5-1.5 1.5.672 1.5 1.5-.672 1.5-1.5 1.5zm-3.5-14.5c1.657 0 3 1.343 3 3h3c1.11.003 2.151.381 3 1.033v-4.033c0-1.657-1.343-3-3-3h-12c-1.657 0-3 1.343-3 3v3h6c0-1.657 1.343-3 3-3zm6-1.5c.828 0 1.5.672 1.5 1.5s-.672 1.5-1.5 1.5-1.5-.672-1.5-1.5.672-1.5 1.5-1.5zm-12 3c-.828 0-1.5-.672-1.5-1.5s.672-1.5 1.5-1.5 1.5.672 1.5 1.5-.672 1.5-1.5 1.5z"/></svg>