<svg id="Layer_1" viewBox="0 0 24 24" xmlns="http://www.w3.org/2000/svg" data-name="Layer 1"><path d="m20.618 11.568c-1.616-2.809-3.933-4.335-6.539-4.852.817-.548 1.81-1.507 2.789-3.22.261-.456.124-1.036-.313-1.328-.071-.048-1.784-1.168-4.555-1.168s-4.483 1.12-4.555 1.168c-.438.292-.574.872-.313 1.328.979 1.713 1.972 2.673 2.789 3.22-2.607.517-4.924 2.042-6.539 4.852-1.234 2.146-1.614 4.514-1.071 6.668.854 3.384 3.661 4.764 9.688 4.764s8.835-1.38 9.688-4.763c.543-2.154.163-4.522-1.07-6.669zm-7.618 7.206v.226c0 .553-.447 1-1 1s-1-.447-1-1v-.139c-.838-.271-1.526-.919-1.83-1.778-.185-.521.088-1.093.608-1.276.523-.184 1.094.088 1.276.608.124.35.457.585.828.585.483 0 .876-.394.876-.877 0-.427-.334-.844-.763-.854-1.453 0-2.635-1.182-2.635-2.635 0-1.1.679-2.043 1.639-2.436v-.198c0-.553.447-1 1-1s1 .447 1 1v.206c.363.15.694.374.96.673.368.412.332 1.045-.08 1.412-.412.366-1.045.332-1.412-.08-.121-.136-.289-.211-.472-.211-.35 0-.635.285-.635.635-.001.376.329.673.694.617 1.516.09 2.703 1.352 2.703 2.871 0 1.19-.726 2.214-1.759 2.651z"/></svg>